<svg xmlns="http://www.w3.org/2000/svg" version="1.1" xmlns:xlink="http://www.w3.org/1999/xlink" xmlns:svgjs="http://svgjs.dev/svgjs" width="1280" height="3600" preserveAspectRatio="none" viewBox="0 0 1280 3600"><g mask="url(&quot;#SvgjsMask1135&quot;)" fill="none"><rect width="1280" height="3600" x="0" y="0" fill="rgba(20, 20, 20, 1)"></rect><path d="M262.424,2749.595C308.963,2746.351,338.626,2704.961,361.111,2664.085C382.523,2625.161,397.899,2580.145,377.283,2540.793C355.395,2499.014,309.535,2473.456,262.424,2475.714C218.544,2477.817,188.224,2513.563,165.169,2550.957C140.439,2591.067,115.918,2637.408,136.638,2679.729C159.243,2725.898,211.142,2753.169,262.424,2749.595" fill="rgba(78, 67, 178, 0.15)" class="triangle-float3"></path><path d="M579.66602667709 521.6775500336466L747.5991830709667 424.7212969837783 650.6429300210983 256.7881405899017 482.7097736272217 353.74439363977z" fill="rgba(78, 67, 178, 0.15)" class="triangle-float2"></path><path d="M987.716,2659.935C1115.148,2658.531,1236.002,2586.585,1290.53,2471.4C1339.207,2368.575,1282.792,2257.558,1224.427,2159.905C1168.197,2065.823,1097.086,1971.914,987.716,1964.747C867.318,1956.857,753.424,2022.027,690.389,2124.908C624.369,2232.661,611.738,2367.741,673.123,2478.2C736.174,2591.657,857.925,2661.365,987.716,2659.935" fill="rgba(78, 67, 178, 0.15)" class="triangle-float3"></path><path d="M651.205,3100.743C692.285,3102.162,734.106,3083.051,752.578,3046.331C769.741,3012.214,750.067,2974.823,731.274,2941.576C712.037,2907.544,690.233,2869.239,651.205,2866.994C609.451,2864.592,572.728,2894.248,553.414,2931.344C535.486,2965.779,541.867,3006.103,561.276,3039.725C580.687,3073.35,612.402,3099.403,651.205,3100.743" fill="rgba(78, 67, 178, 0.15)" class="triangle-float1"></path><path d="M-57.378076085102755 1667.2723421643889L282.54733361959876 1582.5194186470658 197.79441010227555 1242.594008942364-142.13099960242596 1327.3469324596874z" fill="rgba(78, 67, 178, 0.15)" class="triangle-float2"></path><path d="M225.11519593973958 2927.3194617524828L195.53859418757182 3137.767918350873 405.987050785962 3167.344520103041 435.56365253812976 2956.8960635046506z" fill="rgba(78, 67, 178, 0.15)" class="triangle-float3"></path></g><defs><mask id="SvgjsMask1135"><rect width="1280" height="3600" fill="#ffffff"></rect></mask><style>
                @keyframes float1 {
                    0%{transform: translate(0, 0)}
                    50%{transform: translate(-10px, 0)}
                    100%{transform: translate(0, 0)}
                }

                .triangle-float1 {
                    animation: float1 5s infinite;
                }

                @keyframes float2 {
                    0%{transform: translate(0, 0)}
                    50%{transform: translate(-5px, -5px)}
                    100%{transform: translate(0, 0)}
                }

                .triangle-float2 {
                    animation: float2 4s infinite;
                }

                @keyframes float3 {
                    0%{transform: translate(0, 0)}
                    50%{transform: translate(0, -10px)}
                    100%{transform: translate(0, 0)}
                }

                .triangle-float3 {
                    animation: float3 6s infinite;
                }
            </style></defs></svg>